Coordinates
version=1
nRows=36
nColumns=30
inDegrees=yes

Units are S.I. units (second, meters, Newtons, ...)
Angles are in degrees.

endheader
time	floatyaw	floatroll	floatpitch	floatx	floaty	floatz	pro_sup_l	deviation_l	flexion_l	cmc_flexion_l	cmc_abduction_l	mp_flexion_l	ip_flexion_l	2mcp_flexion_l	2mcp_abduction_l	2pm_flexion_l	2md_flexion_l	3mcp_flexion_l	3mcp_abduction_l	3pm_flexion_l	3md_flexion_l	4mcp_flexion_l	4mcp_abduction_l	4pm_flexion_l	4md_flexion_l	5mcp_flexion_l	5mcp_abduction_l	5pm_flexion_l	5md_flexion_l
-1.495000	-160.147433	-5.066637	-73.570646	0.081400	-0.182188	-0.015312	100.459796	4.124257	0.377913	17.672983	10.108278	-25.506525	-42.812068	26.814264	6.457411	43.228701	29.570770	23.384353	3.844682	42.623836	27.897091	12.116996	-4.190979	50.423314	34.361975	0.411724	-7.529995	58.972971	40.781419
-1.485000	-160.147433	-5.066637	-73.570646	0.081399	-0.182179	-0.015307	100.485771	4.138077	0.376021	17.653928	10.103547	-25.488365	-42.799041	26.833416	6.463576	43.231033	29.560716	23.388194	3.848027	42.620588	27.888794	12.129229	-4.189775	50.427243	34.354273	0.437056	-7.540030	58.968882	40.763468
-1.475000	-160.147433	-5.066637	-73.570646	0.081399	-0.182169	-0.015301	100.516637	4.154526	0.370254	17.637697	10.103751	-25.469275	-42.799475	26.857933	6.469970	43.237504	29.551799	23.400412	3.851039	42.617174	27.878018	12.151956	-4.188575	50.429386	34.345074	0.471775	-7.546963	58.958293	40.739737
-1.465000	-160.147433	-5.066637	-73.570646	0.081397	-0.182160	-0.015293	100.549601	4.172573	0.362726	17.625245	10.109427	-25.449654	-42.802797	26.879553	6.475552	43.250554	29.548394	23.414335	3.853397	42.617626	27.869710	12.177312	-4.188355	50.432665	34.337853	0.509549	-7.550130	58.944033	40.714885
-1.455000	-160.147433	-5.066637	-73.570646	0.081395	-0.182152	-0.015284	100.579700	4.190164	0.355665	17.616668	10.125880	-25.431574	-42.800975	26.893385	6.479258	43.269603	29.552321	23.424085	3.855136	42.624502	27.867518	12.197042	-4.189718	50.440247	34.335517	0.544078	-7.549516	58.928913	40.693349
-1.445000	-160.147433	-5.066637	-73.570646	0.081392	-0.182147	-0.015275	100.600488	4.204148	0.350734	17.610427	10.159735	-25.418443	-42.791905	26.899224	6.480448	43.291080	29.561861	23.427777	3.856320	42.636298	27.871069	12.205729	-4.192449	50.453063	34.338489	0.569848	-7.545421	58.915045	40.677955
-1.435000	-160.147433	-5.066637	-73.570646	0.081389	-0.182146	-0.015268	100.605930	4.211009	0.348843	17.603382	10.214265	-25.413587	-42.778696	26.900154	6.479159	43.309809	29.572780	23.427963	3.856665	42.647520	27.876073	12.202331	-4.195561	50.468623	34.344390	0.582456	-7.538386	58.903718	40.669641
-1.425000	-160.147433	-5.066637	-73.570646	0.081386	-0.182149	-0.015263	100.592678	4.208164	0.350285	17.591715	10.286727	-25.418498	-42.765997	26.899840	6.476021	43.321297	29.580774	23.429012	3.855513	42.652076	27.877481	12.189607	-4.197788	50.482069	34.349669	0.579222	-7.529375	58.895561	40.668104
-1.415000	-160.147433	-5.066637	-73.570646	0.081386	-0.182154	-0.015263	100.561649	4.195165	0.354793	17.572428	10.368768	-25.431692	-42.756415	26.900549	6.471979	43.323794	29.583673	23.433602	3.852280	42.647673	27.873302	12.172367	-4.198215	50.488802	34.351931	0.560417	-7.519908	58.890702	40.672518
-1.405000	-160.147433	-5.066637	-73.570646	0.081386	-0.182162	-0.015267	100.518228	4.174185	0.361386	17.544792	10.448715	-25.448852	-42.749583	26.903092	6.468017	43.318765	29.581726	23.441108	3.847067	42.637647	27.865885	12.155801	-4.196663	50.486814	34.351140	0.530340	-7.511857	58.888803	40.681696
-1.395000	-160.147433	-5.066637	-73.570646	0.081386	-0.182170	-0.015274	100.471102	4.149551	0.368246	17.511024	10.514258	-25.464387	-42.744081	26.908298	6.464966	43.309335	29.575910	23.448974	3.840937	42.628487	27.859561	12.144485	-4.193701	50.477247	34.348896	0.497103	-7.506882	58.889025	40.693746
-1.385000	-160.147433	-5.066637	-73.570646	0.081385	-0.182177	-0.015283	100.430163	4.126583	0.372987	17.475672	10.555079	-25.473700	-42.739957	26.918275	6.463370	43.298037	29.566010	23.455566	3.835603	42.625005	27.856752	12.141849	-4.190323	50.463214	34.346643	0.470664	-7.505753	58.890010	40.705845
-1.375000	-160.147433	-5.066637	-73.570646	0.081382	-0.182183	-0.015291	100.404046	4.110161	0.373495	17.443810	10.565690	-25.474885	-42.739088	26.935827	6.463389	43.285790	29.550637	23.461796	3.832670	42.627125	27.856045	12.149535	-4.187506	50.448169	34.344513	0.459675	-7.507951	58.890033	40.714727
-1.365000	-160.147433	-5.066637	-73.570646	0.081378	-0.182185	-0.015296	100.397773	4.103432	0.369063	17.418881	10.547990	-25.468893	-42.742706	26.962024	6.464764	43.272854	29.529511	23.470043	3.832916	42.630739	27.853924	12.166538	-4.185863	50.434931	34.341754	0.468274	-7.511843	58.887482	40.717931
-1.355000	-160.147433	-5.066637	-73.570646	0.081374	-0.182183	-0.015297	100.411198	4.106987	0.361150	17.401346	10.511969	-25.458173	-42.748295	26.993878	6.466897	43.260570	29.505968	23.481370	3.835999	42.631557	27.848563	12.188813	-4.185491	50.425503	34.338168	0.494234	-7.515426	58.881611	40.715149
-1.345000	-160.147433	-5.066637	-73.570646	0.081371	-0.182175	-0.015293	100.439067	4.118852	0.353021	17.388868	10.473248	-25.444799	-42.748907	27.024431	6.469082	43.252028	29.487102	23.493616	3.840718	42.628721	27.842329	12.210290	-4.186063	50.421124	34.335083	0.529673	-7.517277	58.873161	40.708610
-1.335000	-160.147433	-5.066637	-73.570646	0.081370	-0.182163	-0.015285	100.472999	4.135285	0.348232	17.377855	10.447782	-25.429384	-42.736043	27.045780	6.470832	43.250876	29.480823	23.502138	3.845611	42.625465	27.840853	12.225299	-4.187108	50.422209	34.334890	0.564369	-7.517105	58.864261	40.702004
-1.325000	-160.147433	-5.066637	-73.570646	0.081369	-0.182147	-0.015275	100.504536	4.152001	0.348855	17.365400	10.445855	-25.411629	-42.704496	27.053180	6.472069	43.259143	29.491603	23.502814	3.849545	42.626582	27.849274	12.231093	-4.188295	50.428228	34.339436	0.589976	-7.515513	58.857514	40.698524
-1.315000	-160.147433	-5.066637	-73.570646	0.081369	-0.182130	-0.015266	100.527791	4.165280	0.354580	17.350458	10.468210	-25.392215	-42.656097	27.047483	6.473083	43.275767	29.517755	23.495068	3.852020	42.634818	27.868442	12.228765	-4.189552	50.437849	34.348514	0.602803	-7.513207	58.854808	40.699368
-1.305000	-160.147433	-5.066637	-73.570646	0.081368	-0.182114	-0.015259	100.540559	4.172662	0.363150	17.333726	10.506462	-25.374514	-42.599977	27.034445	6.474311	43.296937	29.551991	23.482588	3.853094	42.649076	27.893921	12.221979	-4.190996	50.449497	34.359697	0.603979	-7.510373	58.856629	40.703636
-1.295000	-160.147433	-5.066637	-73.570646	0.081365	-0.182101	-0.015258	100.543794	4.173247	0.371630	17.316605	10.547843	-25.364335	-42.549083	27.021666	6.476085	43.317915	29.584817	23.471149	3.853072	42.665762	27.918557	12.214542	-4.192786	50.462124	34.369735	0.597559	-7.506799	58.862220	40.709498
-1.285000	-160.147433	-5.066637	-73.570646	0.081360	-0.182093	-0.015262	100.540148	4.167632	0.377615	17.300128	10.581715	-25.367340	-42.514922	27.015274	6.478499	43.335011	29.608654	23.465118	3.852230	42.681963	27.936712	12.208537	-4.195029	50.475643	34.376525	0.588079	-7.502534	58.870369	40.715667
-1.275000	-160.147433	-5.066637	-73.570646	0.081355	-0.182090	-0.015271	100.532542	4.157557	0.379843	17.284509	10.604027	-25.385757	-42.503472	27.018082	6.481479	43.346544	29.620423	23.465139	3.850748	42.697672	27.947106	12.204054	-4.197709	50.490635	34.380245	0.578803	-7.498389	58.880205	40.722123
-1.265000	-160.147433	-5.066637	-73.570646	0.081348	-0.182091	-0.015283	100.523456	4.145405	0.378238	17.269367	10.617350	-25.416758	-42.514177	27.029613	6.485051	43.352629	29.621566	23.468369	3.848852	42.715358	27.952497	12.200245	-4.200640	50.507517	34.382854	0.571232	-7.495727	58.891404	40.729652
-1.255000	-160.147433	-5.066637	-73.570646	0.081342	-0.182097	-0.015296	100.515048	4.133756	0.373707	17.254232	10.627234	-25.453640	-42.542045	27.047352	6.489571	43.354295	29.615931	23.470758	3.846937	42.737392	27.956778	12.196645	-4.203491	50.525729	34.386343	0.565756	-7.495593	58.903540	40.738494
-1.245000	-160.147433	-5.066637	-73.570646	0.081335	-0.182103	-0.015307	100.509544	4.125036	0.367834	17.238871	10.637883	-25.488938	-42.581196	27.068348	6.495625	43.352622	29.606974	23.469688	3.845508	42.763422	27.961710	12.193811	-4.205915	50.543489	34.391009	0.562767	-7.497837	58.914943	40.747003
-1.235000	-160.147433	-5.066637	-73.570646	0.081331	-0.182107	-0.015315	100.509084	4.121100	0.362467	17.223156	10.650176	-25.517410	-42.627601	27.090412	6.503501	43.348318	29.595929	23.465379	3.844936	42.789660	27.965526	12.192969	-4.207724	50.558333	34.395008	0.563360	-7.500918	58.922030	40.751331
-1.225000	-160.147433	-5.066637	-73.570646	0.081327	-0.182107	-0.015320	100.514725	4.122713	0.359266	17.206555	10.662959	-25.537115	-42.679132	27.112401	6.512592	43.341982	29.581998	23.460348	3.845209	42.810713	27.964387	12.195050	-4.208982	50.568207	34.395545	0.569126	-7.502644	58.920008	40.746701
-1.215000	-160.147433	-5.066637	-73.570646	0.081327	-0.182100	-0.015321	100.525309	4.129186	0.359328	17.187765	10.676002	-25.548359	-42.732998	27.133674	6.521303	43.334777	29.564270	23.457421	3.845929	42.822816	27.955649	12.199879	-4.209950	50.572521	34.390879	0.581191	-7.501418	58.904973	40.729872
-1.205000	-160.147433	-5.066637	-73.570646	0.081327	-0.182088	-0.015320	100.537243	4.138492	0.362966	17.165079	10.691759	-25.552001	-42.783108	27.153415	6.527718	43.328736	29.543776	23.457722	3.846619	42.826135	27.940531	12.206030	-4.210948	50.572514	34.381698	0.599129	-7.497180	58.876365	40.701451
-1.195000	-160.147433	-5.066637	-73.570646	0.081328	-0.182072	-0.015316	100.545672	4.147875	0.369660	17.137571	10.714255	-25.548760	-42.820351	27.170617	6.530636	43.326001	29.523907	23.460030	3.847087	42.824414	27.924062	12.211358	-4.212202	50.570664	34.370938	0.620365	-7.491389	58.838169	40.666556
-1.185000	-160.147433	-5.066637	-73.570646	0.081329	-0.182056	-0.015310	100.546574	4.154692	0.378237	17.106286	10.745893	-25.539799	-42.836373	27.184802	6.530234	43.327316	29.508753	23.461881	3.847541	42.822140	27.912178	12.213809	-4.213751	50.569465	34.362220	0.640536	-7.486057	58.797881	40.633178
-1.175000	-160.147433	-5.066637	-73.570646	0.081329	-0.182042	-0.015305	100.538719	4.157155	0.387233	17.074429	10.784662	-25.527502	-42.828354	27.196785	6.527868	43.331018	29.500573	23.461491	3.848377	42.821366	27.907999	12.212168	-4.215435	50.570252	34.357981	0.654923	-7.482509	58.763561	40.608955
-1.165000	-160.147433	-5.066637	-73.570646	0.081327	-0.182034	-0.015302	100.524441	4.154805	0.395284	17.046232	10.823908	-25.515322	-42.801299	27.208649	6.525284	43.333614	29.498331	23.458949	3.849866	42.820729	27.910102	12.206517	-4.217001	50.572836	34.358539	0.660437	-7.480735	58.740634	40.598172
-1.155000	-160.147433	-5.066637	-73.570646	0.081326	-0.182031	-0.015302	100.508814	4.148652	0.401433	17.025190	10.855100	-25.506515	-42.766018	27.222752	6.523818	43.331761	29.498394	23.455716	3.852022	42.817639	27.914168	12.198132	-4.218299	50.576333	34.362649	0.657124	-7.479794	58.730250	40.600581
-1.145000	-160.147433	-5.066637	-73.570646	0.081326	-0.182030	-0.015307	100.497562	4.140967	0.405374	17.012629	10.871982	-25.502692	-42.733980	27.240342	6.524000	43.324375	29.496877	23.452897	3.854706	42.811696	27.916600	12.188705	-4.219454	50.580618	34.368962	0.648155	-7.478848	58.729864	40.612403
